# xmcd CD database file
#
# Track frame offsets:
#	150
#	60401
#	132416
#	150753
#	178483
#	194235
#
# Disc length: 3075 seconds
#
# Revision: 0
# Processed by: cddbd v1.5.2PL0 Copyright (c) Steve Scherf et al.
# Submitted via: CDex 1.70beta2
#
DISCID=520c0106
DTITLE=Otomo Yoshihide's New Jazz Orchestra - Live Vol.1 Series Circuit
DYEAR=2006
DGENRE=Jazz
TTITLE0=Lost in the Rain
TTITLE1=Out to Lunch
TTITLE2=Playgirl BGM
TTITLE3=Double Command II
TTITLE4=Single Command
TTITLE5=Climbers High Opening
EXTD=YEAR: 2006
EXTT0=
EXTT1=
EXTT2=
EXTT3=
EXTT4=
EXTT5=
PLAYORDER=
